<?xml version="1.0" standalone="no"?>
<!DOCTYPE svg PUBLIC "-//W3C//DTD SVG 20010904//EN"
 "http://www.w3.org/TR/2001/REC-SVG-20010904/DTD/svg10.dtd">
<svg version="1.0" xmlns="http://www.w3.org/2000/svg"
 width="300.000000pt" height="72.000000pt" viewBox="0 0 300.000000 72.000000"
 preserveAspectRatio="xMidYMid meet">
<metadata>
Created by potrace 1.10, written by Peter Selinger 2001-2011
</metadata>
<g transform="translate(0.000000,72.000000) scale(0.100000,-0.100000)"
fill="#000000" stroke="none">
<path d="M140 371 l0 -251 133 0 c161 0 208 16 233 77 30 72 5 152 -56 175
l-24 9 26 22 c51 43 61 91 28 144 -32 53 -69 66 -212 71 l-128 5 0 -252z m270
164 c13 -12 20 -31 20 -56 0 -54 -24 -66 -133 -71 l-87 -3 0 79 0 78 90 -4
c68 -3 94 -8 110 -23z m-13 -195 c37 -13 56 -46 51 -90 -5 -52 -37 -68 -145
-72 l-93 -4 0 88 0 88 79 0 c43 0 92 -5 108 -10z"/>
<path d="M720 598 c-120 -61 -165 -237 -94 -368 85 -155 310 -162 401 -11 80
133 39 311 -86 378 -61 32 -159 32 -221 1z m167 -39 c70 -26 112 -100 113
-194 0 -133 -93 -220 -207 -195 -104 24 -158 143 -123 272 27 97 127 151 217
117z"/>
<path d="M1160 370 l0 -250 30 0 30 0 0 196 0 195 131 -195 c128 -190 133
-196 165 -196 l34 0 0 250 0 250 -30 0 -30 0 0 -201 0 -200 -132 200 c-127
192 -134 201 -165 201 l-33 0 0 -250z"/>
<path d="M1614 613 c2 -5 45 -69 95 -143 l91 -134 0 -108 0 -108 35 0 35 0 0
105 0 106 93 132 c51 73 96 138 101 145 5 9 -3 12 -31 12 -38 0 -40 -2 -105
-103 -37 -56 -70 -110 -73 -120 -8 -19 -25 -23 -25 -6 0 6 -32 60 -71 120 -71
108 -71 109 -111 109 -21 0 -37 -3 -34 -7z"/>
<path d="M2455 608 c-7 -19 -172 -450 -180 -470 -6 -15 -1 -18 28 -18 34 0 35
1 62 75 l27 76 105 -3 105 -3 28 -70 c27 -67 29 -70 64 -73 20 -2 36 -1 36 2
0 3 -42 108 -93 233 -52 126 -97 236 -100 246 -8 20 -75 24 -82 5z m86 -177
c22 -58 39 -106 39 -108 0 -2 -39 -3 -86 -3 -78 0 -85 2 -79 18 5 9 24 63 44
120 19 57 37 98 39 90 3 -7 22 -60 43 -117z"/>
<path d="M2800 371 l0 -251 33 0 32 0 -2 247 -2 248 -31 3 -30 3 0 -250z"/>
</g>
</svg>
